<?xml version="1.0" standalone="no"?>
<!DOCTYPE svg PUBLIC "-//W3C//DTD SVG 20010904//EN"
 "http://www.w3.org/TR/2001/REC-SVG-20010904/DTD/svg10.dtd">
<svg version="1.0" xmlns="http://www.w3.org/2000/svg"
 width="700.000000pt" height="700.000000pt" viewBox="0 0 700.000000 700.000000"
 preserveAspectRatio="xMidYMid meet">
<metadata>
Created by potrace 1.11, written by Peter Selinger 2001-2013
</metadata>
<g transform="translate(0.000000,700.000000) scale(0.100000,-0.100000)"
fill="#000000" stroke="none">
<path d="M3668 6099 c-15 -6 -36 -25 -47 -42 -18 -30 -19 -54 -20 -361 0 -181
-2 -330 -4 -333 -2 -2 -58 -5 -125 -6 -104 -2 -123 -5 -142 -22 -62 -55 -59
-137 6 -180 21 -14 49 -17 145 -17 l119 0 1 -81 c1 -126 -2 -181 -11 -187 -4
-3 -187 -5 -407 -4 -448 1 -448 1 -479 -68 -17 -38 -17 -40 10 -126 37 -115
93 -309 101 -347 4 -16 10 -50 15 -75 5 -25 11 -58 14 -73 22 -119 30 -502 12
-637 -19 -155 -58 -314 -130 -540 -41 -126 -40 -165 5 -206 20 -18 44 -19 460
-22 l439 -3 0 -359 0 -360 -579 0 -580 0 0 1813 c0 996 -1 1851 -1 1899 0 78
-3 89 -26 117 -32 39 -84 50 -130 28 -56 -27 -62 -50 -63 -261 -1 -163 -3
-193 -18 -215 -10 -14 -20 -31 -23 -37 -4 -9 -457 -784 -481 -824 -10 -17
-135 -232 -244 -420 -40 -69 -179 -307 -309 -529 -253 -433 -257 -443 -216
-501 11 -16 35 -33 53 -38 20 -6 262 -10 630 -9 330 1 601 -1 603 -5 4 -5 6
-624 5 -936 l-1 -84 -187 4 c-179 3 -191 4 -245 30 -65 30 -131 94 -158 153
-22 49 -27 69 -46 185 -3 19 -21 125 -40 235 -19 110 -37 214 -40 230 -6 37
-33 76 -65 92 -38 20 -1357 18 -1404 -1 -72 -30 -85 -129 -24 -180 27 -23 40
-26 103 -26 l73 0 21 -72 c11 -40 47 -163 80 -273 33 -110 144 -479 246 -820
102 -341 193 -635 201 -653 31 -67 -157 -62 2447 -62 2283 0 2364 1 2393 19
21 12 74 87 160 222 71 112 143 225 160 251 16 26 66 103 110 173 44 69 101
158 126 198 26 40 95 149 154 242 126 199 190 298 217 340 l21 31 184 1 c167
1 188 3 212 20 73 55 63 154 -19 189 -17 8 -404 11 -1282 10 -1255 -1 -1257
-1 -1284 -22 -16 -12 -39 -47 -54 -85 -51 -121 -117 -208 -225 -289 -54 -41
-195 -110 -224 -110 -8 0 -11 107 -11 345 l0 345 435 0 435 0 29 28 c59 54
183 509 207 762 9 90 10 410 1 495 -9 92 -22 179 -42 280 -20 99 -76 292 -127
437 -35 98 -7 93 -513 94 -242 1 -443 2 -447 3 -5 1 -8 61 -8 135 l0 134 93 0
c184 0 176 -1 213 36 39 39 44 77 18 127 -22 43 -65 57 -169 57 -150 0 -155 1
-155 16 0 15 63 41 474 197 121 45 230 92 244 104 17 15 26 35 29 68 10 86 4
89 -432 232 -209 69 -393 127 -410 129 -16 3 -42 1 -57 -5z m340 -313 l126
-42 -79 -29 c-44 -15 -93 -34 -110 -41 -31 -14 -114 -44 -121 -44 -2 0 -4 48
-4 106 l0 106 30 -7 c17 -4 88 -26 158 -49z m-1757 -1572 c0 -440 0 -826 -1
-859 l0 -61 -504 0 -505 0 24 40 c12 23 62 109 110 191 49 83 96 164 105 180
134 235 765 1312 768 1310 1 -1 3 -362 3 -801z m2378 336 c31 -97 66 -231 75
-285 3 -16 10 -53 15 -81 31 -163 34 -538 6 -694 -1 -8 -6 -35 -10 -60 -4 -25
-9 -54 -12 -65 -2 -11 -6 -31 -9 -45 -11 -53 -37 -149 -65 -237 l-30 -93 -819
0 c-476 0 -820 4 -820 9 0 5 9 37 20 72 23 77 66 257 75 319 31 206 33 236 29
465 -2 132 -5 255 -6 274 l-3 34 650 0 c695 0 684 -1 719 49 33 47 5 148 -47
164 -12 4 -324 7 -694 7 l-673 0 -15 51 c-8 28 -23 84 -34 123 -11 40 -22 76
-25 81 -2 4 366 8 819 8 l824 0 30 -96z m-3295 -1797 c3 -10 8 -40 12 -68 5
-27 9 -52 9 -55 3 -12 17 -97 21 -125 2 -16 9 -52 14 -80 11 -57 18 -95 26
-145 35 -208 212 -391 421 -435 103 -22 1859 -21 1983 1 286 51 513 211 652
459 l34 60 892 1 892 0 -13 -20 c-7 -12 -40 -64 -72 -116 -33 -52 -62 -97 -65
-100 -3 -3 -42 -63 -86 -135 -84 -134 -469 -739 -530 -832 l-34 -52 -2274 0
-2273 -1 -122 408 c-68 224 -124 414 -126 422 -2 8 -29 96 -59 195 -30 99 -53
181 -51 184 3 2 127 4 277 4 209 0 279 3 300 13 76 39 79 145 5 189 -28 17
-58 18 -343 18 l-312 0 -31 106 c-17 58 -31 109 -31 114 0 4 198 7 439 7 410
0 440 -1 445 -17z"/>
</g>
</svg>
