<svg width="124" height="124" viewBox="0 0 124 124" fill="none" xmlns="http://www.w3.org/2000/svg">
<path d="M122.052 78.1862H114.987H78.4156C78.3208 78.1862 78.2283 78.1953 78.1371 78.2083C78.1184 78.2109 78.0997 78.2137 78.081 78.2168C77.9907 78.2324 77.9023 78.2532 77.8169 78.281C77.8091 78.2836 77.8018 78.2867 77.794 78.2893C77.7122 78.3168 77.633 78.3501 77.5564 78.388C77.5442 78.394 77.5319 78.3992 77.5197 78.4057C77.4408 78.4467 77.3652 78.4929 77.293 78.5439C77.2792 78.5535 77.2662 78.5639 77.253 78.5737C77.1857 78.6239 77.1216 78.6774 77.0613 78.7355C77.0556 78.741 77.0493 78.7459 77.0439 78.7514C76.9813 78.8137 76.9242 78.881 76.8701 78.9514C76.8584 78.9667 76.8468 78.982 76.8356 78.9976C76.7834 79.0701 76.7351 79.1457 76.693 79.2254C76.6886 79.2337 76.6849 79.2426 76.6808 79.2509C76.64 79.3309 76.6049 79.414 76.5753 79.4997C76.5732 79.5062 76.5696 79.5116 76.5675 79.5181C75.2862 83.3618 72.1704 86.1501 68.2127 87.2109V74.955H82.888C83.7338 74.955 84.4829 74.4096 84.7423 73.6046L85.8216 70.2561C88.7478 61.1805 88.7478 51.5865 85.8218 42.5109L84.7423 39.1623C84.4829 38.3574 83.7338 37.8119 82.888 37.8119H67.693V32.9922H71.7662C72.8423 32.9922 73.7143 32.12 73.7143 31.0441C73.7143 29.9683 72.8423 29.0961 71.7662 29.0961H67.6927V28.5166L79.7366 23.9301C80.5078 23.6366 81.0101 22.889 80.9909 22.0641C80.9717 21.2392 80.4345 20.5161 79.6509 20.2587L66.3522 15.8942C65.7582 15.6994 65.1078 15.8013 64.6021 16.1675C64.0964 16.534 63.7966 17.1205 63.7966 17.7452V27.129C63.7958 27.1589 63.7958 27.189 63.7966 27.2192V29.0961H60.1299C59.054 29.0961 58.1818 29.9683 58.1818 31.0441C58.1818 32.12 59.054 32.9922 60.1299 32.9922H63.7969V37.8119H49.6413C49.0184 37.8119 48.4332 38.1096 48.0665 38.6129C47.6997 39.1163 47.5958 39.7649 47.787 40.3576L48.8665 43.7062C49.3829 45.308 49.7984 46.9275 50.1153 48.5579C50.1249 48.6353 50.1397 48.7109 50.1582 48.7852C51.4293 55.5244 51 62.4431 48.8665 69.0605L47.787 72.409C47.5958 73.0018 47.6997 73.6501 48.0665 74.1537C48.4332 74.6571 49.0184 74.9548 49.6413 74.9548H64.3166V87.682H43.7922V27.72V21.0706C43.7922 19.9948 42.92 19.1226 41.8442 19.1226C40.7683 19.1226 39.8961 19.9948 39.8961 21.0706V27.1932L16.8886 66.6345C16.5371 67.2368 16.5345 67.9815 16.8821 68.5862C17.2294 69.1911 17.8738 69.5641 18.5712 69.5641H39.8958V87.6826H34.6291C31.9647 87.6826 29.6499 85.8924 28.9758 83.3207L27.14 72.6763C26.979 71.7418 26.1686 71.0592 25.2203 71.0592H21.1429H5.27273H1.94805C0.872208 71.0592 0 71.9314 0 73.0072C0 74.0831 0.872208 74.9553 1.94805 74.9553H3.82338L5.78208 81.4841C5.78364 81.4896 5.7852 81.495 5.78701 81.5005L13.381 106.814C13.6283 107.638 14.3868 108.202 15.247 108.202H98.3639C99.0299 108.202 99.6496 107.862 100.007 107.3L116.057 82.0823H122.052C123.128 82.0823 124 81.2101 124 80.1342C124 79.0584 123.128 78.1862 122.052 78.1862ZM67.693 20.4355L73.2117 22.2467L67.693 24.3483V20.4355ZM52.5748 70.2566C54.6784 63.7322 55.2696 56.9397 54.3488 50.2646H77.1169C78.193 50.2646 79.0649 49.3924 79.0649 48.3166C79.0649 47.2407 78.193 46.3685 77.1169 46.3685H53.6335C53.3377 45.0745 52.9862 43.7878 52.5748 42.5114L52.3161 41.7088H81.4694L82.1135 43.707C84.7873 52.0005 84.7873 60.7677 82.1135 69.0613L81.4694 71.0594H52.3161L52.5748 70.2566ZM21.9631 65.668L39.8961 34.9257V65.668H21.9631ZM97.2943 104.306H16.6961L10.2631 82.8628H19.7143C20.7901 82.8628 21.6623 81.9906 21.6623 80.9148C21.6623 79.8389 20.7901 78.9667 19.7143 78.9667H9.09429L7.89091 74.9553H21.1429H23.5797L25.1499 84.0592C25.1582 84.1067 25.1681 84.154 25.1797 84.2005C26.2657 88.5446 30.1514 91.5784 34.6291 91.5784H64.5769C71.4055 91.5784 77.2122 87.8963 79.7517 82.082H111.438L97.2943 104.306Z" fill="#253858"/>
</svg>
