<svg width="79" height="79" viewBox="0 0 79 79" fill="none" xmlns="http://www.w3.org/2000/svg">
<path d="M78.8527 60.165C78.636 59.7602 78.2139 59.5073 77.7547 59.5073H46.9716V49.2463H73.5042C73.9664 49.2463 74.3905 48.9903 74.606 48.5813C74.8215 48.1724 74.7926 47.6779 74.5311 47.2967L46.9716 7.1098V5.49576C46.9716 4.80787 46.414 4.25049 45.7263 4.25049C45.0386 4.25049 44.481 4.80787 44.481 5.49576V13.8969L27.1339 45.2732C26.9206 45.6589 26.9272 46.1286 27.1512 46.5083C27.3752 46.8879 27.783 47.1209 28.2238 47.1209H41.5897C42.2774 47.1209 42.835 46.5635 42.835 45.8756C42.835 45.1877 42.2774 44.6303 41.5897 44.6303H30.3353L44.481 19.0441V59.5072H41.9407V58.8928C41.9407 54.5442 38.4026 51.0061 34.054 51.0061H23.7431V22.9518C23.7431 22.9503 23.7431 22.949 23.7431 22.9475V22.199C23.7431 21.5111 23.1856 20.9537 22.4979 20.9537C21.8101 20.9537 21.2526 21.5111 21.2526 22.199V22.5636L4.46534 47.3018C4.20649 47.6834 4.17959 48.1767 4.39544 48.5841C4.61129 48.9916 5.03468 49.2463 5.49576 49.2463H18.2473C18.9351 49.2463 19.4926 48.6889 19.4926 48.001C19.4926 47.3131 18.9351 46.7557 18.2473 46.7557H7.84584L21.2526 26.9988V51.0063H18.2473C17.5596 51.0063 17.0021 51.5637 17.0021 52.2515V55.2568H9.74629C9.05857 55.2568 8.50102 55.8142 8.50102 56.5021V59.5073H1.24524C0.844924 59.5073 0.469019 59.6998 0.235074 60.0244C0.000962655 60.3491 -0.0626292 60.7667 0.0638903 61.1464L4.31442 73.898C4.48394 74.4066 4.9598 74.7494 5.49576 74.7494H69.2536C69.6701 74.7494 70.0589 74.5414 70.2897 74.1949L78.7908 61.4433C79.0455 61.0611 79.0692 60.5698 78.8527 60.165ZM71.1403 46.7557H46.9716V14.2319C46.9716 14.2291 46.9716 14.2264 46.9716 14.2238V11.5134L71.1403 46.7557ZM68.5873 72.2589H6.39335L2.97301 61.9979H35.6976C36.3853 61.9979 36.9428 61.4405 36.9428 60.7526C36.9428 60.0647 36.3853 59.5073 35.6976 59.5073H10.9916V57.7473H18.2473C18.9351 57.7473 19.4926 57.19 19.4926 56.5021V53.4968H34.054C35.6298 53.4968 37.0499 54.1761 38.0374 55.257H23.5605C22.8728 55.257 22.3152 55.8143 22.3152 56.5022C22.3152 57.1901 22.8728 57.7475 23.5605 57.7475H39.3266C39.4068 58.1169 39.4502 58.5 39.4502 58.893V60.7526C39.4502 61.4405 40.0077 61.9979 40.6954 61.9979C40.7653 61.9979 40.8334 61.9907 40.9001 61.9796C40.9669 61.9907 41.035 61.9979 41.1049 61.9979H75.4279L68.5873 72.2589Z" fill="#253858"/>
</svg>
