<svg width="596" height="654" viewBox="0 0 596 654" fill="none" xmlns="http://www.w3.org/2000/svg">
<path d="M540.416 68.3256C543.935 63.6861 549.972 63.2921 553.902 67.4474C565.609 79.826 580.72 86.6448 596.45 86.6448C601.724 86.6448 606 91.6949 606 97.9241C606 104.153 601.724 109.203 596.45 109.203C576.011 109.203 556.376 100.342 541.161 84.2536C537.231 80.0983 536.899 72.9667 540.416 68.3256ZM9.55019 109.203C41.3357 109.203 69.002 87.9667 82.9122 56.8779C96.8223 87.9667 124.489 109.203 156.274 109.203C188.06 109.203 215.727 87.9667 229.637 56.8779C243.548 87.9667 271.214 109.203 302.999 109.203C334.785 109.203 362.451 87.9667 376.361 56.8779C390.272 87.9667 417.938 109.203 449.725 109.203C495.443 109.203 532.637 65.2757 532.637 11.2793C532.637 5.05012 528.361 0 523.087 0C517.812 0 513.536 5.05012 513.536 11.2793C513.536 52.8369 484.91 86.6448 449.725 86.6448C414.538 86.6448 385.912 52.8369 385.912 11.2793C385.912 5.05012 381.636 0 376.361 0C371.087 0 366.811 5.05012 366.811 11.2793C366.811 52.8369 338.186 86.6448 302.999 86.6448C267.813 86.6448 239.188 52.8369 239.188 11.2793C239.188 5.05012 234.912 0 229.637 0C224.363 0 220.087 5.05012 220.087 11.2793C220.087 52.8369 191.461 86.6448 156.274 86.6448C121.087 86.6448 92.4623 52.8369 92.4623 11.2793C92.4623 5.05012 88.1864 0 82.9122 0C77.6379 0 73.362 5.05012 73.362 11.2793C73.362 52.8369 44.7356 86.6448 9.55019 86.6448C4.27594 86.6448 0 91.6949 0 97.9241C0 104.153 4.27594 109.203 9.55019 109.203ZM596.45 302.042C561.264 302.042 532.638 268.233 532.638 226.677C532.638 220.448 528.362 215.398 523.088 215.398C517.814 215.398 513.538 220.448 513.538 226.677C513.538 268.233 484.911 302.042 449.726 302.042C414.539 302.042 385.913 268.233 385.913 226.677C385.913 220.448 381.637 215.398 376.363 215.398C371.088 215.398 366.812 220.448 366.812 226.677C366.812 268.233 338.186 302.042 303.001 302.042C267.815 302.042 239.189 268.233 239.189 226.677C239.189 220.448 234.913 215.398 229.639 215.398C224.364 215.398 220.088 220.448 220.088 226.677C220.088 268.233 191.462 302.042 156.275 302.042C121.09 302.042 92.4636 268.233 92.4636 226.677C92.4636 220.448 88.1877 215.398 82.9134 215.398C77.6392 215.398 73.3632 220.448 73.3632 226.677C73.3632 268.233 44.7369 302.042 9.55146 302.042C4.27721 302.042 0.00127336 307.092 0.00127336 313.322C0.00127336 319.551 4.27721 324.601 9.55146 324.601C41.337 324.601 69.0033 303.364 82.9134 272.275C96.8236 303.364 124.49 324.601 156.275 324.601C188.061 324.601 215.729 303.364 229.639 272.275C243.549 303.364 271.215 324.601 303.001 324.601C334.786 324.601 362.452 303.364 376.363 272.275C390.273 303.364 417.939 324.601 449.726 324.601C481.511 324.601 509.178 303.364 523.088 272.275C536.998 303.364 564.664 324.601 596.45 324.601C601.724 324.601 606 319.551 606 313.322C606 307.092 601.724 302.042 596.45 302.042ZM596.45 517.441C561.264 517.441 532.638 483.632 532.638 442.076C532.638 435.847 528.362 430.797 523.088 430.797C517.814 430.797 513.538 435.847 513.538 442.076C513.538 483.632 484.911 517.441 449.726 517.441C414.539 517.441 385.913 483.632 385.913 442.076C385.913 435.847 381.637 430.797 376.363 430.797C371.088 430.797 366.812 435.847 366.812 442.076C366.812 483.632 338.186 517.441 303.001 517.441C267.815 517.441 239.189 483.632 239.189 442.076C239.189 435.847 234.913 430.797 229.639 430.797C224.364 430.797 220.088 435.847 220.088 442.076C220.088 483.632 191.462 517.441 156.275 517.441C121.09 517.441 92.4636 483.632 92.4636 442.076C92.4636 435.847 88.1877 430.797 82.9134 430.797C77.6392 430.797 73.3632 435.847 73.3632 442.076C73.3632 483.632 44.7369 517.441 9.55146 517.441C4.27721 517.441 0.00127336 522.491 0.00127336 528.721C0.00127336 534.95 4.27721 540 9.55146 540C41.337 540 69.0033 518.763 82.9134 487.674C96.8236 518.763 124.49 540 156.275 540C188.061 540 215.729 518.763 229.639 487.674C243.549 518.763 271.215 540 303.001 540C334.786 540 362.452 518.763 376.363 487.674C390.273 518.763 417.939 540 449.726 540C481.511 540 509.178 518.763 523.088 487.674C536.998 518.763 564.664 540 596.45 540C601.724 540 606 534.95 606 528.721C606 522.491 601.724 517.441 596.45 517.441Z" fill="#0747A6" fill-opacity="0.2"/>
<path d="M698.416 182.326C701.935 177.686 707.972 177.292 711.902 181.447C723.609 193.826 738.72 200.645 754.45 200.645C759.724 200.645 764 205.695 764 211.924C764 218.153 759.724 223.203 754.45 223.203C734.011 223.203 714.376 214.342 699.161 198.254C695.231 194.098 694.899 186.967 698.416 182.326ZM167.55 223.203C199.336 223.203 227.002 201.967 240.912 170.878C254.822 201.967 282.489 223.203 314.274 223.203C346.06 223.203 373.727 201.967 387.637 170.878C401.548 201.967 429.214 223.203 460.999 223.203C492.785 223.203 520.451 201.967 534.361 170.878C548.272 201.967 575.938 223.203 607.725 223.203C653.443 223.203 690.637 179.276 690.637 125.279C690.637 119.05 686.361 114 681.087 114C675.812 114 671.536 119.05 671.536 125.279C671.536 166.837 642.91 200.645 607.725 200.645C572.538 200.645 543.912 166.837 543.912 125.279C543.912 119.05 539.636 114 534.361 114C529.087 114 524.811 119.05 524.811 125.279C524.811 166.837 496.186 200.645 460.999 200.645C425.813 200.645 397.188 166.837 397.188 125.279C397.188 119.05 392.912 114 387.637 114C382.363 114 378.087 119.05 378.087 125.279C378.087 166.837 349.461 200.645 314.274 200.645C279.087 200.645 250.462 166.837 250.462 125.279C250.462 119.05 246.186 114 240.912 114C235.638 114 231.362 119.05 231.362 125.279C231.362 166.837 202.736 200.645 167.55 200.645C162.276 200.645 158 205.695 158 211.924C158 218.153 162.276 223.203 167.55 223.203ZM754.45 416.042C719.264 416.042 690.638 382.233 690.638 340.677C690.638 334.448 686.362 329.398 681.088 329.398C675.814 329.398 671.538 334.448 671.538 340.677C671.538 382.233 642.911 416.042 607.726 416.042C572.539 416.042 543.913 382.233 543.913 340.677C543.913 334.448 539.637 329.398 534.363 329.398C529.088 329.398 524.812 334.448 524.812 340.677C524.812 382.233 496.186 416.042 461.001 416.042C425.815 416.042 397.189 382.233 397.189 340.677C397.189 334.448 392.913 329.398 387.639 329.398C382.364 329.398 378.088 334.448 378.088 340.677C378.088 382.233 349.462 416.042 314.275 416.042C279.09 416.042 250.464 382.233 250.464 340.677C250.464 334.448 246.188 329.398 240.913 329.398C235.639 329.398 231.363 334.448 231.363 340.677C231.363 382.233 202.737 416.042 167.551 416.042C162.277 416.042 158.001 421.092 158.001 427.322C158.001 433.551 162.277 438.601 167.551 438.601C199.337 438.601 227.003 417.364 240.913 386.275C254.824 417.364 282.49 438.601 314.275 438.601C346.061 438.601 373.729 417.364 387.639 386.275C401.549 417.364 429.215 438.601 461.001 438.601C492.786 438.601 520.452 417.364 534.363 386.275C548.273 417.364 575.939 438.601 607.726 438.601C639.511 438.601 667.178 417.364 681.088 386.275C694.998 417.364 722.664 438.601 754.45 438.601C759.724 438.601 764 433.551 764 427.322C764 421.092 759.724 416.042 754.45 416.042ZM754.45 631.441C719.264 631.441 690.638 597.632 690.638 556.076C690.638 549.847 686.362 544.797 681.088 544.797C675.814 544.797 671.538 549.847 671.538 556.076C671.538 597.632 642.911 631.441 607.726 631.441C572.539 631.441 543.913 597.632 543.913 556.076C543.913 549.847 539.637 544.797 534.363 544.797C529.088 544.797 524.812 549.847 524.812 556.076C524.812 597.632 496.186 631.441 461.001 631.441C425.815 631.441 397.189 597.632 397.189 556.076C397.189 549.847 392.913 544.797 387.639 544.797C382.364 544.797 378.088 549.847 378.088 556.076C378.088 597.632 349.462 631.441 314.275 631.441C279.09 631.441 250.464 597.632 250.464 556.076C250.464 549.847 246.188 544.797 240.913 544.797C235.639 544.797 231.363 549.847 231.363 556.076C231.363 597.632 202.737 631.441 167.551 631.441C162.277 631.441 158.001 636.491 158.001 642.721C158.001 648.95 162.277 654 167.551 654C199.337 654 227.003 632.763 240.913 601.674C254.824 632.763 282.49 654 314.275 654C346.061 654 373.729 632.763 387.639 601.674C401.549 632.763 429.215 654 461.001 654C492.786 654 520.452 632.763 534.363 601.674C548.273 632.763 575.939 654 607.726 654C639.511 654 667.178 632.763 681.088 601.674C694.998 632.763 722.664 654 754.45 654C759.724 654 764 648.95 764 642.721C764 636.491 759.724 631.441 754.45 631.441Z" fill="#0747A6" fill-opacity="0.2"/>
</svg>
